<?xml version="1.0" encoding="UTF-8" standalone="no"?>
<svg
   version="1.1"
   x="0px"
   y="0px"
   viewBox="0 0 61.601002 90.029999"
   enable-background="new 0 0 100 100"
   xml:space="preserve"
   id="svg2"
   sodipodi:docname="android-tablet-white.svg"
   width="61.601002"
   height="90.029999"
   inkscape:version="1.3.2 (091e20e, 2023-11-25, custom)"
   xmlns:inkscape="http://www.inkscape.org/namespaces/inkscape"
   xmlns:sodipodi="http://sodipodi.sourceforge.net/DTD/sodipodi-0.dtd"
   xmlns="http://www.w3.org/2000/svg"
   xmlns:svg="http://www.w3.org/2000/svg"><defs
     id="defs2" /><sodipodi:namedview
     id="namedview2"
     pagecolor="#505050"
     bordercolor="#eeeeee"
     borderopacity="1"
     inkscape:showpageshadow="0"
     inkscape:pageopacity="0"
     inkscape:pagecheckerboard="0"
     inkscape:deskcolor="#505050"
     inkscape:zoom="6.536"
     inkscape:cx="30.905753"
     inkscape:cy="57.45104"
     inkscape:window-width="1920"
     inkscape:window-height="1094"
     inkscape:window-x="-11"
     inkscape:window-y="-11"
     inkscape:window-maximized="1"
     inkscape:current-layer="svg2" /><rect
     x="-14.2"
     y="0.013000011"
     fill="none"
     width="90"
     height="90"
     id="rect1" /><path
     d="M 57.4,0 H 52.67 49.43 43.04 41.6 19.63 18.56 12.17 9.03 4.2 C 1.89,0 0,1.63 0,3.62 v 3.62 1.93 3.13 2.18 61.07 7.24 3.62 c 0,1.99 1.89,3.62 4.2,3.62 h 6.18 1.79 6.39 2.8 18.12 3.561 6.39 2.38 5.59 c 2.311,0 4.2,-1.63 4.2,-3.62 V 84.7 82.79 75.55 14.48 9.17 7.24 6.96 3.62 C 61.6,1.63 59.71,0 57.4,0 Z M 30.8,87.3 c -2.49,0 -4.51,-2.03 -4.51,-4.51 0,-2.49 2.02,-4.521 4.51,-4.521 2.49,0 4.51,2.03 4.51,4.521 0,2.48 -2.02,4.51 -4.51,4.51 z M 54.35,75.54 H 51.81 49.43 43.04 39.48 21.36 18.56 12.17 10.38 7.24 V 14.48 h 1.79 3.14 6.39 1.07 21.97 1.44 6.39 3.24 1.68 z"
     id="path1"
     style="fill:#ffffff" /></svg>
