<?xml version="1.0" encoding="UTF-8" standalone="no"?>
<!-- Created with Inkscape (http://www.inkscape.org/) -->

<svg
   width="8.6384697mm"
   height="16.19553mm"
   viewBox="0 0 8.6384697 16.19553"
   version="1.1"
   id="svg1"
   inkscape:version="1.3.2 (091e20e, 2023-11-25, custom)"
   sodipodi:docname="airpods-white.svg"
   xmlns:inkscape="http://www.inkscape.org/namespaces/inkscape"
   xmlns:sodipodi="http://sodipodi.sourceforge.net/DTD/sodipodi-0.dtd"
   xmlns="http://www.w3.org/2000/svg"
   xmlns:svg="http://www.w3.org/2000/svg">
  <sodipodi:namedview
     id="namedview1"
     pagecolor="#505050"
     bordercolor="#eeeeee"
     borderopacity="1"
     inkscape:showpageshadow="0"
     inkscape:pageopacity="0"
     inkscape:pagecheckerboard="0"
     inkscape:deskcolor="#505050"
     inkscape:document-units="mm"
     inkscape:zoom="0.72782688"
     inkscape:cx="86.559045"
     inkscape:cy="177.92693"
     inkscape:window-width="1920"
     inkscape:window-height="1094"
     inkscape:window-x="-11"
     inkscape:window-y="-11"
     inkscape:window-maximized="1"
     inkscape:current-layer="layer1" />
  <defs
     id="defs1">
    <clipPath
       clipPathUnits="userSpaceOnUse"
       id="clipPath2135">
      <path
         d="M 0,792 H 720 V 0 H 0 Z"
         transform="translate(-48.536401,-596.71702)"
         id="path2135" />
    </clipPath>
    <clipPath
       clipPathUnits="userSpaceOnUse"
       id="clipPath2137">
      <path
         d="M 0,792 H 720 V 0 H 0 Z"
         transform="translate(-49.936401,-601.46801)"
         id="path2137" />
    </clipPath>
    <clipPath
       clipPathUnits="userSpaceOnUse"
       id="clipPath2139">
      <path
         d="M 0,792 H 720 V 0 H 0 Z"
         transform="translate(-51.870301,-615.61462)"
         id="path2139" />
    </clipPath>
    <clipPath
       clipPathUnits="userSpaceOnUse"
       id="clipPath2141">
      <path
         d="M 0,792 H 720 V 0 H 0 Z"
         transform="translate(-69.689501,-615.61462)"
         id="path2141" />
    </clipPath>
    <clipPath
       clipPathUnits="userSpaceOnUse"
       id="clipPath2143">
      <path
         d="M 0,792 H 720 V 0 H 0 Z"
         transform="translate(-62.103802,-597.99112)"
         id="path2143" />
    </clipPath>
    <clipPath
       clipPathUnits="userSpaceOnUse"
       id="clipPath2145">
      <path
         d="M 0,792 H 720 V 0 H 0 Z"
         transform="translate(-71.589402,-604.66192)"
         id="path2145" />
    </clipPath>
  </defs>
  <g
     inkscape:label="Layer 1"
     inkscape:groupmode="layer"
     id="layer1"
     transform="translate(-82.285417,-101.33542)">
    <path
       id="path2134"
       d="m 0,0 c 0,0 0.063,-13.717 0.07,-14.474 0.013,-1.187 0.075,-2.104 0.224,-2.821 0.186,-0.899 0.463,-1.524 0.788,-2.048 0.295,-0.474 0.7,-0.949 1.124,-1.3 0.372,-0.309 0.76,-0.557 1.03,-0.687 0.618,-0.298 1.02,-0.442 1.752,-0.587 0.722,-0.143 1.661,-0.2 3.285,-0.2 l 1.721,-0.005 h 2.249 2.25 l 1.72,0.005 c 1.625,0 2.564,0.057 3.286,0.2 0.732,0.145 1.134,0.289 1.752,0.587 0.27,0.13 0.658,0.378 1.03,0.687 0.424,0.351 0.829,0.826 1.124,1.3 0.325,0.524 0.602,1.149 0.788,2.048 0.149,0.717 0.211,1.634 0.224,2.821 C 24.425,-13.717 24.487,0 24.487,0 Z"
       style="fill:#ffffff;fill-opacity:1;fill-rule:nonzero;stroke:none"
       transform="matrix(0.35277776,0,0,-0.35277776,82.285417,109.7268)"
       clip-path="url(#clipPath2135)" />
    <path
       id="path2136"
       d="m 0,0 c 0.051,0.937 0.394,1.57 0.737,1.877 0.332,0.297 0.616,0.427 1.448,0.671 0.78,0.23 1.235,0.333 1.988,0.504 L 4.495,3.125 C 4.768,3.188 5.006,3.236 5.249,3.287 L 5.247,5.195 C 5.04,5.192 4.862,5.188 4.762,5.184 4.397,5.167 3.574,5.061 2.988,4.904 1.927,4.62 0.908,4.123 0.034,3.194 -0.776,2.337 -1.4,1.029 -1.4,-0.401 c 0,-1.28 0.402,-2.724 1.305,-3.6 h 5.21 C 4.074,-3.506 0.99,-1.839 0.468,-1.289 0.066,-0.865 -0.028,-0.508 0,0"
       style="fill:#ffffff;fill-opacity:1;fill-rule:nonzero;stroke:none"
       transform="matrix(0.35277776,0,0,-0.35277776,82.779306,108.05076)"
       clip-path="url(#clipPath2137)" />
    <path
       id="path2138"
       d="M 0,0 C -0.306,0 -0.558,0.252 -0.558,0.564 -0.558,0.874 -0.306,1.13 0,1.13 0.315,1.13 0.567,0.874 0.567,0.564 0.567,0.252 0.315,0 0,0 M 5.864,2.714 C 5.089,4.017 3.51,4.889 2.181,4.889 -0.193,4.889 -1.714,3.458 -2.287,2.54 -2.291,2.536 -2.295,2.532 -2.3,2.522 V 2.521 C -2.331,2.463 -2.36,2.321 -2.382,1.952 -2.405,1.592 -2.423,1.111 -2.423,0.6 c 0,-0.511 0.018,-0.992 0.041,-1.353 0.026,-0.395 0.055,-0.53 0.089,-0.578 0.559,-1.028 2.454,-2.373 4.22,-2.373 1.082,0 1.759,0.457 2.005,0.653 0.039,0.03 0.064,0.046 0.083,0.045 0.025,-0.005 0.044,-0.029 0.044,-0.079 l 0.01,-13.511 c 0,-0.186 0.061,-0.381 0.172,-0.542 0.152,-0.216 0.397,-0.371 0.715,-0.371 h 1.342 c 0.318,0 0.565,0.155 0.715,0.371 0.114,0.161 0.175,0.36 0.175,0.547 l 0.001,11.417 c 0,3.221 -0.167,5.941 -1.325,7.888"
       style="fill:#ffffff;fill-opacity:1;fill-rule:nonzero;stroke:none"
       transform="matrix(0.35277776,0,0,-0.35277776,83.461543,103.06015)"
       clip-path="url(#clipPath2139)" />
    <path
       id="path2140"
       d="M 0,0 C -0.315,0 -0.567,0.252 -0.567,0.564 -0.567,0.874 -0.315,1.13 0,1.13 0.306,1.13 0.558,0.874 0.558,0.564 0.558,0.252 0.306,0 0,0 M 2.382,1.952 C 2.36,2.321 2.331,2.463 2.3,2.521 V 2.522 C 2.295,2.532 2.291,2.536 2.287,2.54 1.714,3.458 0.193,4.889 -2.181,4.889 -3.51,4.889 -5.089,4.017 -5.864,2.714 -7.022,0.767 -7.189,-1.953 -7.189,-5.174 l 0.001,-11.417 c 0,-0.187 0.061,-0.386 0.175,-0.547 0.15,-0.216 0.397,-0.371 0.715,-0.371 h 1.342 c 0.318,0 0.563,0.155 0.715,0.371 0.111,0.161 0.172,0.356 0.172,0.542 l 0.01,13.511 c 0,0.05 0.019,0.074 0.044,0.079 0.019,10e-4 0.044,-0.015 0.083,-0.045 0.246,-0.196 0.923,-0.653 2.005,-0.653 1.766,0 3.661,1.345 4.22,2.373 0.034,0.048 0.063,0.183 0.089,0.578 0.023,0.361 0.041,0.842 0.041,1.353 0,0.511 -0.018,0.992 -0.041,1.352"
       style="fill:#ffffff;fill-opacity:1;fill-rule:nonzero;stroke:none"
       transform="matrix(0.35277776,0,0,-0.35277776,89.747761,103.06015)"
       clip-path="url(#clipPath2141)" />
    <path
       id="path2142"
       d="m 0,0 c -0.014,0.017 -0.028,0.035 -0.041,0.053 -0.201,0.285 -0.311,0.633 -0.311,0.98 l -0.001,7.654 c -0.504,0 -0.868,0 -0.971,0 -0.103,0 -0.467,0 -0.971,0 V 1.033 c 0,-0.347 -0.111,-0.695 -0.312,-0.98 -0.012,-0.018 -0.026,-0.036 -0.04,-0.052 -0.188,-0.248 -0.439,-0.42 -0.719,-0.525 H 0.718 C 0.438,-0.419 0.188,-0.247 0,0"
       style="fill:#ffffff;fill-opacity:1;fill-rule:nonzero;stroke:none"
       transform="matrix(0.35277776,0,0,-0.35277776,87.071694,109.27733)"
       clip-path="url(#clipPath2143)" />
    <path
       id="path2144"
       d="m 0,0 c -0.874,0.929 -1.893,1.426 -2.954,1.71 -0.585,0.157 -1.409,0.263 -1.774,0.28 -0.1,0.005 -0.278,0.008 -0.485,0.011 L -5.215,0.093 c 0.243,-0.051 0.481,-0.099 0.754,-0.162 l 0.322,-0.073 c 0.753,-0.171 1.208,-0.274 1.988,-0.504 0.832,-0.244 1.116,-0.373 1.448,-0.671 0.343,-0.307 0.686,-0.94 0.737,-1.877 0.028,-0.508 -0.067,-0.865 -0.468,-1.288 -0.522,-0.551 -3.607,-2.218 -4.647,-2.713 h 5.21 c 0.979,0.958 1.305,2.468 1.305,3.6 C 1.434,-2.165 0.811,-0.857 0,0"
       style="fill:#ffffff;fill-opacity:1;fill-rule:nonzero;stroke:none"
       transform="matrix(0.35277776,0,0,-0.35277776,90.418003,106.92402)"
       clip-path="url(#clipPath2145)" />
  </g>
</svg>
