<?xml version="1.0" encoding="UTF-8" standalone="no"?>
<!-- Created with Inkscape (http://www.inkscape.org/) -->

<svg
   width="13.275172mm"
   height="14.608336mm"
   viewBox="0 0 13.275172 14.608336"
   version="1.1"
   id="svg1"
   inkscape:version="1.3.2 (091e20e, 2023-11-25, custom)"
   sodipodi:docname="apple-watch-black.svg"
   xmlns:inkscape="http://www.inkscape.org/namespaces/inkscape"
   xmlns:sodipodi="http://sodipodi.sourceforge.net/DTD/sodipodi-0.dtd"
   xmlns="http://www.w3.org/2000/svg"
   xmlns:svg="http://www.w3.org/2000/svg">
  <sodipodi:namedview
     id="namedview1"
     pagecolor="#505050"
     bordercolor="#eeeeee"
     borderopacity="1"
     inkscape:showpageshadow="0"
     inkscape:pageopacity="0"
     inkscape:pagecheckerboard="0"
     inkscape:deskcolor="#505050"
     inkscape:document-units="mm"
     inkscape:zoom="0.72782688"
     inkscape:cx="-85.185092"
     inkscape:cy="154.56972"
     inkscape:window-width="1920"
     inkscape:window-height="1094"
     inkscape:window-x="-11"
     inkscape:window-y="-11"
     inkscape:window-maximized="1"
     inkscape:current-layer="layer1" />
  <defs
     id="defs1">
    <clipPath
       clipPathUnits="userSpaceOnUse"
       id="clipPath4541">
      <path
         d="M 0,1034.646 H 1544.882 V 0 H 0 Z"
         transform="translate(-39.545901,-902.76093)"
         id="path4541" />
    </clipPath>
    <clipPath
       clipPathUnits="userSpaceOnUse"
       id="clipPath4543">
      <path
         d="M 0,1034.646 H 1544.882 V 0 H 0 Z"
         transform="translate(-39.227501,-912.50703)"
         id="path4543" />
    </clipPath>
    <clipPath
       clipPathUnits="userSpaceOnUse"
       id="clipPath4545">
      <path
         d="M 0,1034.646 H 1544.882 V 0 H 0 Z"
         transform="translate(-67.635701,-915.84202)"
         id="path4545" />
    </clipPath>
    <clipPath
       clipPathUnits="userSpaceOnUse"
       id="clipPath4547">
      <path
         d="M 0,1034.646 H 1544.882 V 0 H 0 Z"
         transform="translate(-38.918001,-920.72872)"
         id="path4547" />
    </clipPath>
    <clipPath
       clipPathUnits="userSpaceOnUse"
       id="clipPath4549">
      <path
         d="M 0,1034.646 H 1544.882 V 0 H 0 Z"
         transform="translate(-36.943401,-912.65992)"
         id="path4549" />
    </clipPath>
    <clipPath
       clipPathUnits="userSpaceOnUse"
       id="clipPath4551">
      <path
         d="M 0,1034.646 H 1544.882 V 0 H 0 Z"
         transform="translate(-73.103502,-906.04222)"
         id="path4551" />
    </clipPath>
  </defs>
  <g
     inkscape:label="Layer 1"
     inkscape:groupmode="layer"
     id="layer1"
     transform="translate(-127.52917,-107.68542)">
    <path
       id="path4540"
       d="m 0,0 c -0.154,0 -0.324,0.077 -0.427,0.199 -0.072,0.083 -0.119,0.193 -0.14,0.33 -0.008,0.056 -0.012,0.147 -0.014,0.294 v 3.819 l 0.014,0.324 c 0.021,0.11 0.064,0.207 0.127,0.268 0.12,0.152 0.278,0.231 0.438,0.231 0.078,0 0.154,-0.017 0.237,-0.053 C 0.386,5.335 0.485,5.219 0.534,5.058 0.56,4.97 0.577,4.871 0.583,4.751 0.591,4.625 0.591,0.837 0.583,0.701 0.577,0.588 0.56,0.482 0.534,0.392 0.487,0.245 0.382,0.125 0.239,0.059 0.158,0.02 0.086,0 0,0"
       style="fill:#231f20;fill-opacity:1;fill-rule:nonzero;stroke:none"
       transform="matrix(0.35277776,0,0,-0.35277776,128.77995,117.35109)"
       clip-path="url(#clipPath4541)" />
    <path
       id="path4542"
       d="M 0,0 C -0.951,0 -1.723,0.764 -1.723,1.702 -1.723,2.64 -0.951,3.404 0,3.404 0.942,3.404 1.708,2.64 1.708,1.702 1.708,0.764 0.942,0 0,0"
       style="fill:#231f20;fill-opacity:1;fill-rule:nonzero;stroke:none"
       transform="matrix(0.35277776,0,0,-0.35277776,128.66763,113.91288)"
       clip-path="url(#clipPath4543)" />
    <path
       id="path4544"
       d="M 0,0 C 0.051,0.206 0.096,0.422 0.146,0.602 0.353,1.41 0.519,2.044 0.059,3.038 l -0.17,0.374 c -0.044,0.094 -0.087,0.173 -0.138,0.255 -0.047,0.094 -0.09,0.191 -0.137,0.267 -0.374,0.65 -0.758,1.231 -1.154,1.755 -0.399,0.531 -0.9,1.012 -1.282,1.436 -0.4,0.417 -0.776,0.681 -1.125,1.001 -0.175,0.161 -0.349,0.302 -0.509,0.438 -0.161,0.139 -0.319,0.269 -0.462,0.382 -0.151,0.109 -0.284,0.21 -0.413,0.307 -0.327,0.236 -0.655,0.449 -0.992,0.661 -0.284,0.195 -0.678,0.111 -0.867,-0.176 -0.196,-0.279 -0.114,-0.676 0.179,-0.863 0,0 0.054,-0.034 0.157,-0.11 0.053,-0.038 0.12,-0.081 0.196,-0.131 0.041,-0.028 0.088,-0.056 0.135,-0.088 0.037,-0.03 0.079,-0.055 0.131,-0.088 0.092,-0.066 0.192,-0.139 0.311,-0.217 0.114,-0.094 0.235,-0.195 0.378,-0.3 0.129,-0.101 0.274,-0.217 0.425,-0.34 0.144,-0.136 0.299,-0.277 0.464,-0.418 0.321,-0.3 0.771,-0.657 1.168,-1.051 0.377,-0.366 0.681,-0.71 1.044,-1.215 0.361,-0.492 0.731,-1.043 1.054,-1.632 0.047,-0.087 0.086,-0.158 0.115,-0.233 0.043,-0.055 0.077,-0.125 0.112,-0.198 0.076,-0.16 0.142,-0.329 0.202,-0.483 0.135,-0.327 0.24,-0.664 0.359,-1.046 0.059,-0.191 0.112,-0.378 0.206,-0.605 0.157,-0.426 0.452,-0.758 0.531,-0.848 C -0.02,-0.096 -0.014,-0.05 0,0"
       style="fill:#231f20;fill-opacity:1;fill-rule:nonzero;stroke:none"
       transform="matrix(0.35277776,0,0,-0.35277776,138.68941,112.73637)"
       clip-path="url(#clipPath4545)" />
    <path
       id="path4546"
       d="m 0,0 c 0,-0.038 -0.004,-0.071 -0.004,-0.105 0,-0.222 0.072,-0.456 0.221,-0.659 0.188,-0.245 0.456,-0.399 0.758,-0.432 0.218,-0.034 0.434,0.008 0.608,0.088 0.174,0.088 0.308,0.207 0.415,0.344 0.094,0.125 0.172,0.273 0.246,0.416 0.032,0.077 0.075,0.153 0.108,0.222 0.084,0.153 0.166,0.313 0.243,0.472 0.072,0.162 0.147,0.323 0.243,0.483 0.094,0.164 0.191,0.323 0.295,0.485 0.122,0.182 0.241,0.367 0.38,0.543 0.253,0.34 0.544,0.726 0.904,1.1 0.164,0.203 0.37,0.384 0.567,0.581 0.204,0.185 0.421,0.39 0.654,0.581 C 6.094,4.508 6.614,4.887 7.186,5.257 7.327,5.341 7.474,5.433 7.617,5.524 7.768,5.612 7.92,5.696 8.07,5.782 L 8.183,5.846 8.309,5.91 C 8.393,5.954 8.477,6 8.567,6.042 8.645,6.089 8.732,6.131 8.818,6.178 L 8.852,6.193 8.869,6.2 c 0.002,0 0.006,0.01 0.006,0.01 L 8.928,6.235 9.055,6.29 c 0.337,0.159 0.683,0.308 1.047,0.442 0.36,0.143 0.736,0.263 1.12,0.378 0.774,0.217 1.604,0.42 2.44,0.565 0.423,0.065 1.891,0.416 5.251,-0.175 3.998,-0.698 9.006,-4.604 11.055,-9.02 0.501,-1.084 0.325,-1.807 0.11,-2.639 -0.056,-0.189 -0.099,-0.391 -0.145,-0.592 -0.26,-1.296 0,-1.919 0.178,-2.814 0.053,-0.283 0.166,-0.773 0.198,-1.085 0.602,-5.179 -1.209,-9.434 -1.229,-9.486 -0.038,-0.091 -0.056,-0.147 -0.056,-0.147 -0.123,-0.315 0.068,-0.68 0.394,-0.799 0.321,-0.123 0.619,0.006 0.777,0.358 0.106,0.237 2.17,4.875 1.407,10.277 -0.046,0.344 -0.107,0.649 -0.166,0.955 -0.165,0.8 -0.284,1.435 -0.071,2.451 0.028,0.174 0.074,0.341 0.119,0.525 0.238,0.917 0.53,2.048 -0.197,3.611 C 29.064,3.888 24.03,8.138 18.686,9.142 15.822,9.685 13.689,9.311 13.227,9.231 11.374,8.907 9.861,8.491 8.351,7.805 L 8.21,7.744 8.142,7.713 8.061,7.675 C 7.969,7.63 7.885,7.588 7.797,7.546 7.705,7.504 7.625,7.458 7.544,7.42 L 7.407,7.353 7.282,7.278 C 7.104,7.184 6.93,7.092 6.76,6.992 6.595,6.897 6.431,6.793 6.272,6.69 5.632,6.298 5.047,5.888 4.526,5.456 4.255,5.249 4.016,5.024 3.779,4.819 3.663,4.711 3.554,4.602 3.442,4.501 3.327,4.402 3.231,4.294 3.125,4.185 3.021,4.084 2.922,3.985 2.826,3.888 2.727,3.778 2.642,3.683 2.55,3.584 2.36,3.391 2.193,3.194 2.035,3.018 1.93,2.896 1.826,2.766 1.724,2.647 1.438,2.304 1.178,1.943 0.924,1.582 0.883,1.528 0.832,1.475 0.801,1.425 0.675,1.25 0.554,1.073 0.438,0.896 0.356,0.795 0.302,0.703 0.248,0.627 0.141,0.45 0.025,0.245 0,0"
       style="fill:#231f20;fill-opacity:1;fill-rule:nonzero;stroke:none"
       transform="matrix(0.35277776,0,0,-0.35277776,128.55845,111.01245)"
       clip-path="url(#clipPath4547)" />
    <path
       id="path4548"
       d="m 0,0 v -0.004 c -0.306,0.42 -0.495,1.021 -0.495,1.553 0,0.584 0.234,1.191 0.548,1.653 0.509,0.676 1.302,1.104 2.213,1.104 1.515,0 2.746,-1.234 2.746,-2.757 C 5.012,0.05 3.781,-1.176 2.266,-1.176 1.327,-1.176 0.505,-0.718 0,0 m 4.133,-8.747 c 0,-0.329 0,-0.487 -0.012,-0.651 C 4.109,-9.622 4.076,-9.79 4.027,-9.949 3.9,-10.357 3.622,-10.689 3.232,-10.87 c -0.201,-0.091 -0.427,-0.137 -0.647,-0.137 -0.44,0 -0.857,0.187 -1.147,0.531 -0.19,0.22 -0.303,0.489 -0.358,0.8 -0.016,0.117 -0.025,0.243 -0.031,0.436 -0.006,0.126 -0.006,0.266 0,0.501 v 3.142 c -0.006,0.223 -0.006,0.366 0,0.501 0.006,0.193 0.015,0.313 0.031,0.428 0.055,0.324 0.168,0.577 0.358,0.806 0.429,0.508 1.182,0.676 1.789,0.387 0.391,-0.174 0.673,-0.51 0.8,-0.907 0.049,-0.172 0.082,-0.34 0.094,-0.556 0.012,-0.162 0.012,-0.33 0.012,-0.649 z M 1.31,-15.819 c -0.173,0.283 -0.359,0.631 -0.412,1.144 l -0.002,0.127 v 0.028 c 0,0.457 0.151,0.916 0.449,1.332 0.375,0.469 0.899,0.764 1.438,0.823 0.104,0.017 0.207,0.027 0.313,0.027 0.307,0 0.622,-0.073 0.912,-0.204 0.294,-0.133 0.554,-0.338 0.844,-0.692 0.121,-0.17 0.224,-0.361 0.324,-0.552 l 0.067,-0.136 0.018,-0.046 c 0.101,-0.179 0.195,-0.359 0.293,-0.571 0,-0.002 0.004,-0.008 0.004,-0.009 0.243,0.382 0.428,0.775 0.501,1.197 0.06,0.296 0.078,0.594 0.082,0.911 0.013,0.285 0.013,0.688 0.013,1.122 V 4.76 c 0,0.424 0,0.848 -0.013,1.116 C 6.137,6.201 6.119,6.495 6.059,6.797 5.986,7.217 5.801,7.611 5.558,7.989 5.554,7.977 5.546,7.969 5.544,7.954 5.45,7.769 5.358,7.587 5.3,7.486 L 5.255,7.391 5.249,7.379 5.176,7.233 V 7.229 C 5.076,7.038 4.967,6.839 4.816,6.64 4.605,6.369 4.343,6.155 4.008,5.983 3.726,5.853 3.409,5.784 3.102,5.784 2.996,5.784 2.891,5.792 2.83,5.803 2.242,5.868 1.712,6.167 1.325,6.667 1.049,7.041 0.896,7.503 0.896,7.963 L 0.898,8.125 0.904,8.18 C 0.951,8.632 1.137,8.982 1.31,9.265 L 1.362,9.345 1.374,9.36 C 1.397,9.392 1.409,9.406 1.433,9.44 1.343,9.414 1.258,9.406 1.164,9.364 0.733,9.171 0.362,8.913 0.053,8.596 c 0,0 -0.01,-0.019 -0.028,-0.023 C 0.018,8.558 0.006,8.548 0,8.535 L -0.008,8.531 C -0.323,8.187 -0.55,7.792 -0.687,7.396 -0.838,6.995 -0.898,6.594 -0.922,6.197 -0.945,5.818 -0.943,5.329 -0.943,4.76 v -16.078 c 0,-0.577 -0.002,-1.06 0.021,-1.435 0.024,-0.397 0.117,-0.787 0.235,-1.2 0.125,-0.437 0.389,-0.815 0.687,-1.138 v -0.006 c 0.006,-0.004 0.018,-0.015 0.025,-0.028 0.004,-0.006 0.012,-0.006 0.012,-0.012 l 0.006,-0.006 h 0.002 c 0.306,-0.316 0.686,-0.586 1.119,-0.781 0.096,-0.044 0.187,-0.058 0.28,-0.088 -0.041,0.061 -0.084,0.117 -0.134,0.193"
       style="fill:#231f20;fill-opacity:1;fill-rule:nonzero;stroke:none"
       transform="matrix(0.35277776,0,0,-0.35277776,127.86185,113.85894)"
       clip-path="url(#clipPath4549)" />
    <path
       id="path4550"
       d="M 0,0 H -0.004 C -0.012,0.004 -0.037,0.004 -0.064,0.004 0.405,2.66 0.532,5.553 -0.31,7.981 -0.519,8.583 -1.09,9.473 -1.571,9.964 -1.593,9.84 -1.624,9.708 -1.653,9.583 -1.854,8.629 -1.734,8.054 -1.583,7.252 -1.517,6.954 -1.46,6.636 -1.409,6.281 -0.775,1.808 -1.975,-2.147 -2.487,-3.57 -2.503,-3.625 -2.526,-3.666 -2.54,-3.73 c -0.664,-1.874 -1.61,-3.597 -2.789,-5.219 -1.182,-1.633 -2.626,-3.066 -4.257,-4.16 -1.632,-1.101 -3.724,-1.845 -5.556,-2.227 -0.912,-0.191 -1.828,-0.297 -2.73,-0.339 -0.227,-0.013 -0.458,-0.013 -0.677,-0.013 h -0.158 -0.173 c -0.113,0 -0.232,0 -0.35,0.009 -0.426,0.012 -0.863,0.046 -1.293,0.092 -0.846,0.102 -1.666,0.251 -2.441,0.476 -0.384,0.109 -0.76,0.229 -1.119,0.372 -0.364,0.139 -0.711,0.281 -1.048,0.438 l -0.127,0.059 -0.053,0.032 h -0.005 l -0.018,0.01 -0.033,0.016 c -0.086,0.046 -0.174,0.089 -0.251,0.135 -0.09,0.046 -0.174,0.088 -0.258,0.126 l -0.127,0.063 -0.112,0.072 c -0.151,0.082 -0.303,0.171 -0.453,0.255 -0.144,0.093 -0.29,0.185 -0.431,0.273 -0.572,0.366 -1.093,0.743 -1.549,1.14 -0.232,0.179 -0.449,0.388 -0.653,0.571 -0.197,0.201 -0.404,0.386 -0.568,0.583 -0.36,0.378 -0.651,0.756 -0.904,1.102 -0.139,0.179 -0.258,0.361 -0.38,0.545 -0.103,0.156 -0.201,0.316 -0.295,0.482 -0.095,0.157 -0.171,0.318 -0.243,0.483 -0.076,0.165 -0.158,0.318 -0.242,0.468 -0.033,0.071 -0.076,0.147 -0.108,0.227 -0.075,0.145 -0.153,0.288 -0.247,0.42 -0.107,0.129 -0.241,0.258 -0.415,0.336 -0.173,0.082 -0.389,0.128 -0.608,0.093 -0.302,-0.034 -0.569,-0.189 -0.758,-0.429 -0.148,-0.207 -0.22,-0.442 -0.22,-0.663 0,-0.034 0.003,-0.069 0.003,-0.105 0.026,-0.245 0.141,-0.451 0.248,-0.627 0.054,-0.08 0.109,-0.168 0.191,-0.267 0.115,-0.175 0.236,-0.354 0.362,-0.531 0.031,-0.05 0.082,-0.11 0.123,-0.159 0.254,-0.361 0.515,-0.719 0.8,-1.06 0.103,-0.13 0.206,-0.252 0.312,-0.369 0.158,-0.187 0.325,-0.382 0.514,-0.569 0.092,-0.101 0.178,-0.201 0.277,-0.302 0.095,-0.101 0.195,-0.2 0.298,-0.301 0.107,-0.103 0.203,-0.217 0.318,-0.312 0.111,-0.108 0.221,-0.214 0.337,-0.323 0.236,-0.206 0.475,-0.433 0.747,-0.636 0.52,-0.43 1.105,-0.844 1.746,-1.244 0.158,-0.091 0.322,-0.195 0.487,-0.293 0.17,-0.096 0.344,-0.191 0.523,-0.284 l 0.125,-0.078 0.136,-0.057 c 0.081,-0.048 0.162,-0.094 0.253,-0.136 0.088,-0.042 0.172,-0.084 0.264,-0.124 l 0.081,-0.037 0.068,-0.036 0.141,-0.068 c 1.511,-0.678 3.263,-1.175 5.142,-1.368 0.469,-0.055 0.945,-0.088 1.438,-0.098 0.117,0 0.236,-0.004 0.352,-0.006 h 0.174 0.192 c 0.242,0.002 0.493,0.012 0.733,0.016 0.988,0.06 1.997,0.172 2.999,0.396 2.02,0.434 4.307,1.272 6.092,2.495 1.789,1.216 3.347,2.788 4.609,4.553 1.258,1.769 2.249,3.611 2.946,5.609 0.199,0.589 0.421,1.181 0.569,1.773 0.004,0.016 0.008,0.034 0.014,0.055 0.045,-0.003 0.09,-0.013 0.103,-0.017 0.402,-0.074 0.83,0.408 0.959,1.072 C 0.624,-0.675 0.399,-0.08 0,0"
       style="fill:#231f20;fill-opacity:1;fill-rule:nonzero;stroke:none"
       transform="matrix(0.35277776,0,0,-0.35277776,140.61833,116.19352)"
       clip-path="url(#clipPath4551)" />
  </g>
</svg>
