<?xml version="1.0" encoding="UTF-8" standalone="no"?>
<!-- Created with Inkscape (http://www.inkscape.org/) -->

<svg
   width="20.830116mm"
   height="26.667177mm"
   viewBox="0 0 20.830116 26.667177"
   version="1.1"
   id="svg1"
   inkscape:version="1.3.2 (091e20e, 2023-11-25, custom)"
   sodipodi:docname="ipad-white.svg"
   xmlns:inkscape="http://www.inkscape.org/namespaces/inkscape"
   xmlns:sodipodi="http://sodipodi.sourceforge.net/DTD/sodipodi-0.dtd"
   xmlns="http://www.w3.org/2000/svg"
   xmlns:svg="http://www.w3.org/2000/svg">
  <sodipodi:namedview
     id="namedview1"
     pagecolor="#505050"
     bordercolor="#eeeeee"
     borderopacity="1"
     inkscape:showpageshadow="0"
     inkscape:pageopacity="0"
     inkscape:pagecheckerboard="0"
     inkscape:deskcolor="#505050"
     inkscape:document-units="mm"
     inkscape:zoom="0.72782688"
     inkscape:cx="-45.340452"
     inkscape:cy="202.65808"
     inkscape:window-width="1920"
     inkscape:window-height="1094"
     inkscape:window-x="-11"
     inkscape:window-y="-11"
     inkscape:window-maximized="1"
     inkscape:current-layer="layer1" />
  <defs
     id="defs1">
    <clipPath
       clipPathUnits="userSpaceOnUse"
       id="clipPath4576">
      <path
         d="M 0,2880 H 1900 V 0 H 0 Z"
         transform="translate(-65.482502,-2541.5509)"
         id="path4576" />
    </clipPath>
  </defs>
  <g
     inkscape:label="Layer 1"
     inkscape:groupmode="layer"
     id="layer1"
     transform="translate(-116.94583,-94.720832)">
    <path
       id="path4575"
       d="m 0,0 c -0.955,0 -1.732,-0.773 -1.732,-1.73 0,-0.956 0.777,-1.735 1.732,-1.735 0.957,0 1.734,0.779 1.734,1.735 C 1.734,-0.773 0.957,0 0,0 m 23.178,62.967 c 0,0.173 -0.141,0.314 -0.313,0.314 h -45.73 c -0.17,0 -0.311,-0.141 -0.311,-0.314 V 1.939 c 0,-0.169 0.141,-0.312 0.311,-0.312 h 45.73 c 0.172,0 0.313,0.143 0.313,0.312 z m 6.345,-64.34 c 0,-2.18 -1.783,-3.969 -3.966,-3.969 h -51.112 c -2.181,0 -3.968,1.789 -3.968,3.969 v 67.656 c 0,2.182 1.787,3.967 3.968,3.967 h 51.112 c 2.183,0 3.966,-1.785 3.966,-3.967 z"
       style="fill:#ffffff;fill-opacity:1;fill-rule:nonzero;stroke:none"
       transform="matrix(0.35277776,0,0,-0.35277776,127.36089,119.50347)"
       clip-path="url(#clipPath4576)" />
  </g>
</svg>
