<?xml version="1.0" encoding="UTF-8" standalone="no"?>
<!-- Created with Inkscape (http://www.inkscape.org/) -->

<svg
   width="6.795558mm"
   height="12.455877mm"
   viewBox="0 0 6.795558 12.455877"
   version="1.1"
   id="svg1"
   inkscape:version="1.3.2 (091e20e, 2023-11-25, custom)"
   sodipodi:docname="iphone.svg"
   xmlns:inkscape="http://www.inkscape.org/namespaces/inkscape"
   xmlns:sodipodi="http://sodipodi.sourceforge.net/DTD/sodipodi-0.dtd"
   xmlns="http://www.w3.org/2000/svg"
   xmlns:svg="http://www.w3.org/2000/svg">
  <sodipodi:namedview
     id="namedview1"
     pagecolor="#505050"
     bordercolor="#eeeeee"
     borderopacity="1"
     inkscape:showpageshadow="0"
     inkscape:pageopacity="0"
     inkscape:pagecheckerboard="0"
     inkscape:deskcolor="#505050"
     inkscape:document-units="mm"
     inkscape:zoom="0.72782688"
     inkscape:cx="189.60553"
     inkscape:cy="274.10364"
     inkscape:window-width="1920"
     inkscape:window-height="1094"
     inkscape:window-x="-11"
     inkscape:window-y="-11"
     inkscape:window-maximized="1"
     inkscape:current-layer="layer1" />
  <defs
     id="defs1">
    <clipPath
       clipPathUnits="userSpaceOnUse"
       id="clipPath12487">
      <path
         d="M 0,2296.063 H 1700.787 V 0 H 0 Z"
         transform="translate(0,-2.5e-5)"
         id="path12487" />
    </clipPath>
  </defs>
  <g
     inkscape:label="Layer 1"
     inkscape:groupmode="layer"
     id="layer1"
     transform="translate(-55.033333,-75.935428)">
    <path
       id="path12486"
       d="M 53.783,2073.496 H 37.547 v 23.678 h 16.236 z m -8.122,-4.457 c -1.021,0 -1.853,0.834 -1.853,1.859 0,1.024 0.832,1.858 1.853,1.858 1.028,0 1.862,-0.834 1.862,-1.858 0,-1.025 -0.834,-1.859 -1.862,-1.859 m -1.517,30.85 h 3.043 c 0.199,0 0.361,-0.16 0.361,-0.362 0,-0.197 -0.162,-0.357 -0.361,-0.357 h -3.043 c -0.199,0 -0.361,0.16 -0.361,0.357 0,0.202 0.162,0.362 0.361,0.362 m 8.088,3.101 H 39.099 c -1.691,0 -3.066,-1.375 -3.066,-3.064 v -29.18 c 0,-1.689 1.375,-3.064 3.066,-3.064 h 13.133 c 1.689,0 3.064,1.375 3.064,3.064 v 29.18 c 0,1.689 -1.375,3.064 -3.064,3.064"
       style="fill:#ffffff;fill-opacity:1;fill-rule:nonzero;stroke:none"
       transform="matrix(0.35277776,0,0,-0.35277776,42.321692,817.82353)"
       clip-path="url(#clipPath12487)" />
  </g>
</svg>
